Coordinates
version=1
nRows=14
nColumns=24
inDegrees=yes

Units are S.I. units (second, meters, Newtons, ...)
Angles are in degrees.

endheader
time	pelvis_tilt	pelvis_list	pelvis_rotation	pelvis_tx	pelvis_ty	pelvis_tz	hip_flexion_r	hip_adduction_r	hip_rotation_r	knee_angle_r	ankle_angle_r	subtalar_angle_r	mtp_angle_r	hip_flexion_l	hip_adduction_l	hip_rotation_l	knee_angle_l	ankle_angle_l	subtalar_angle_l	mtp_angle_l	lumbar_extension	lumbar_bending	lumbar_rotation
      4.33000000	      0.38217654	      0.61463495	      0.53425857	      0.58606560	      0.70881394	     -0.23397866	     23.46854062	      2.38313393	     -1.27125345	    -64.37692610	      8.05269029	     -7.15324202	      0.00000000	     -3.19496435	      6.72409646	     28.40501277	      0.54724096	     -1.59742283	    -30.86868807	      0.00000000	    -16.26947386	     -4.34655870	     -1.35126733
      4.34000000	      0.19913995	      0.24072807	      1.18143588	      0.59777479	      0.70894179	     -0.23454713	     25.08713824	      2.70729072	     -1.86266746	    -63.02669662	      8.47533766	    -10.38664767	      0.00000000	     -4.45895471	      6.09832382	     28.88224066	      1.38648400	     -1.25879710	    -30.96442855	      0.00000000	    -16.21947630	     -3.86876550	     -1.87723755
      4.35000000	      0.25276537	     -0.05373824	      1.98473363	      0.60938342	      0.70904629	     -0.23537999	     26.29704796	      2.80703575	     -2.60348772	    -61.35917729	      9.08670878	    -12.76361936	      0.00000000	     -5.92758839	      5.52761103	     29.68010075	      2.15848554	     -1.08820731	    -31.30598529	      0.00000000	    -16.52396465	     -3.41594148	     -2.55140733
      4.36000000	      0.11205267	     -0.32767592	      2.60663513	      0.62110569	      0.70860092	     -0.23598716	     27.60048811	      2.95519139	     -3.08322156	    -59.42457939	      9.90717251	    -14.11576966	      0.00000000	     -7.13660348	      5.01648058	     30.11592715	      2.83256051	     -0.65315218	    -31.46957693	      0.00000000	    -16.53382014	     -3.03690337	     -3.08394777
      4.37000000	      0.10511782	     -0.47186917	      3.27698571	      0.63274187	      0.70807849	     -0.23663205	     28.60470666	      2.92428225	     -3.58595635	    -57.16061509	     10.83503396	    -14.74913896	      0.00000000	     -8.40476979	      4.63365453	     30.72971457	      3.33952235	     -0.28581764	    -31.70575617	      0.00000000	    -16.76581257	     -2.82279352	     -3.68182396
      4.38000000	      0.09108370	     -0.54863906	      3.83984020	      0.64447487	      0.70727612	     -0.23722492	     29.45618757	      2.88475040	     -3.87758142	    -54.58710627	     11.90456253	    -14.56564223	      0.00000000	     -9.64655544	      4.33649586	     31.25471341	      3.78724843	      0.07951462	    -31.99144060	      0.00000000	    -16.95963483	     -2.66136841	     -4.20832801
      4.39000000	      0.26819266	     -0.52600754	      4.44692088	      0.65618621	      0.70653298	     -0.23788454	     29.89640707	      2.72400802	     -4.21204347	    -51.61973020	     12.98943169	    -13.88495311	      0.00000000	    -11.03969864	      4.11286434	     31.99024749	      4.10916582	      0.29160912	    -32.41510048	      0.00000000	    -17.43375006	     -2.59670722	     -4.86401576
      4.40000000	      0.33114299	     -0.52887273	      4.94679024	      0.66805640	      0.70547812	     -0.23844411	     30.23368109	      2.68220497	     -4.33201853	    -48.21937611	     13.98123312	    -12.85385998	      0.00000000	    -12.28261946	      3.89026644	     32.58018000	      4.35132035	      0.59740395	    -32.79924166	      0.00000000	    -17.73707532	     -2.50764718	     -5.44145360
      4.41000000	      0.35782184	     -0.49496503	      5.41447831	      0.68008340	      0.70425343	     -0.23902936	     30.36616162	      2.61978598	     -4.41321549	    -44.38249478	     14.79266772	    -11.67660415	      0.00000000	    -13.45412488	      3.72770064	     33.11746389	      4.48259625	      0.97471557	    -33.04429544	      0.00000000	    -17.95073289	     -2.44834031	     -6.01171600
      4.42000000	      0.28587900	     -0.46341802	      5.83544322	      0.69231768	      0.70276591	     -0.23962419	     30.34474065	      2.58184216	     -4.46145150	    -40.09451008	     15.38042472	    -10.52294571	      0.00000000	    -14.50687078	      3.59544679	     33.53147464	      4.54531928	      1.45693765	    -33.17661653	      0.00000000	    -17.98699395	     -2.38746050	     -6.50929874
      4.43000000	      0.41914716	     -0.39197924	      6.29527510	      0.70454980	      0.70150617	     -0.24030555	     29.81409287	      2.52724681	     -4.48720778	    -35.33627353	     15.56142003	     -9.49163836	      0.00000000	    -15.72605638	      3.48978293	     33.94400256	      4.47341286	      1.95505319	    -33.09294239	      0.00000000	    -18.32337970	     -2.30354987	     -7.21791498
      4.44000000	      0.18310178	     -0.32440096	      6.61783646	      0.71712878	      0.69963248	     -0.24095431	     29.47035476	      2.47869617	     -4.51219880	    -30.28922785	     15.42317428	     -8.50092250	      0.00000000	    -16.55212890	      3.46731141	     34.24812715	      4.33462779	      2.52071911	    -32.97526940	      0.00000000	    -18.09517951	     -2.25723942	     -7.68352587
      4.45000000	      0.18977911	     -0.14421401	      7.05074503	      0.72983583	      0.69799768	     -0.24171266	     28.62473958	      2.28338136	     -4.90649415	    -24.96564423	     14.98381123	     -7.67827523	      0.00000000	    -17.62265462	      3.52482476	     34.43934619	      4.10684824	      3.15252647	    -32.48675356	      0.00000000	    -18.18261430	     -2.29631931	     -8.41770909
      4.46000000	      0.27622707	      0.08445805	      7.33721872	      0.74270850	      0.69638295	     -0.24247793	     27.59752210	      2.08820197	     -5.53862341	    -19.68422894	     14.25903852	     -6.43828282	      0.00000000	    -18.74725959	      3.71292193	     34.30076490	      3.73496545	      3.90126042	    -31.64827237	      0.00000000	    -18.38295686	     -2.35031503	     -9.00271737
